<svg id="Layer_1" data-name="Layer 1" xmlns="http://www.w3.org/2000/svg" viewBox="0 0 430.82 412.98"><title>Successful purchase-pana 3</title><g id="freepik--background-simple--inject-198"><path d="M439.53,142.26c-12.17-30.48-32.85-58.61-61.85-74s-66.92-15.8-93.24,3.8c-40.19,29.93-46,96.75-92.72,114.92-19.73,7.68-41.94,4.13-62.79,7.77-47.93,8.4-83.24,58.53-78.69,107S91.08,395.33,138,408.32C245.16,438,328.87,418.29,388.52,364S469.45,217.19,439.53,142.26Z" transform="translate(-34.59 -57.01)" style="fill:#ebebeb"/></g><g id="freepik--Floor--inject-198"><path d="M465.41,463.75c0,.15-96.45.26-215.4.26s-215.42-.11-215.42-.26,96.43-.26,215.42-.26S465.41,463.61,465.41,463.75Z" transform="translate(-34.59 -57.01)" style="fill:#263238"/></g><g id="freepik--Character--inject-198"><path d="M141.49,124.52l.08,4s1.63,31,1.53,35.66-15.65,31.25-15.65,31.25L137,211l22.8-41-5.46-44-.14-1.09" transform="translate(-34.59 -57.01)" style="fill:#ffbe9d"/><path d="M153.07,119.73,150,108.44l-12,6.94c0,1,3.59,9.14,3.59,9.14l2.08,2.16s10.43-1.1,10.65-1.21S153.07,119.73,153.07,119.73Z" transform="translate(-34.59 -57.01)" style="fill:#ffbe9d"/><path d="M150.37,109.24a.87.87,0,0,1,.12.24c.46,1.22,1.8,6.73,1.19,7.14s-2.67.51-3-.18-1.47-7-1.47-7-.12-1,1.46-1.67C149.65,107.39,150.37,109.24,150.37,109.24Z" transform="translate(-34.59 -57.01)" style="fill:#ffbe9d"/><path d="M146.57,108.12a.9.9,0,0,1,.12.23c.46,1.23,1.8,6.73,1.19,7.14s-2.67.51-3-.18-1.47-7-1.47-7-.11-1,1.46-1.66C145.85,106.26,146.57,108.12,146.57,108.12Z" transform="translate(-34.59 -57.01)" style="fill:#ffbe9d"/><path d="M143.1,108a.55.55,0,0,1,.12.24c.46,1.22,1.79,6.73,1.18,7.14s-2.66.51-3-.18-1.47-7-1.47-7-.12-1,1.46-1.66C142.38,106.11,143.1,108,143.1,108Z" transform="translate(-34.59 -57.01)" style="fill:#ffbe9d"/><path d="M139.66,107.86a.55.55,0,0,1,.12.24c.46,1.22,1.79,6.73,1.18,7.14s-2.67.51-3-.18-1.47-7-1.47-7-.12-1,1.46-1.66C138.94,106,139.66,107.86,139.66,107.86Z" transform="translate(-34.59 -57.01)" style="fill:#ffbe9d"/><path d="M148.25,114.84a10.58,10.58,0,0,0-.43-2.74,10.92,10.92,0,0,0-.76-2.62,10.58,10.58,0,0,0,.43,2.74A10.92,10.92,0,0,0,148.25,114.84Z" transform="translate(-34.59 -57.01)" style="fill:#eb996e"/><path d="M145,115.69a21.18,21.18,0,0,0-.67-3.87,20.64,20.64,0,0,0-1-3.8,23,23,0,0,0,.67,3.87A22.87,22.87,0,0,0,145,115.69Z" transform="translate(-34.59 -57.01)" style="fill:#eb996e"/><g style="opacity:0.7799999713897705"><path d="M141.67,116.27a23.15,23.15,0,0,0-.67-3.88,22.87,22.87,0,0,0-1-3.8,21.29,21.29,0,0,0,.67,3.88A20.64,20.64,0,0,0,141.67,116.27Z" transform="translate(-34.59 -57.01)" style="fill:#eb996e"/></g><path d="M144.27,123.42l-3.64-2.94a8,8,0,0,1-2.89-5.17l-.2-1.55,11-2.22s0,4.09-3.1,4.14l3.87,2Z" transform="translate(-34.59 -57.01)" style="fill:#ffbe9d"/><path d="M148.78,118.47a11.39,11.39,0,0,0-.95-1.06,5.11,5.11,0,0,0-3.34-1.35h-1.18l1.11-.41,2.54-.94h0a3,3,0,0,0,1.58-2.84,2.38,2.38,0,0,0,0-.26l.31.17c-3.07.76-5.85,1.4-7.88,1.75-1,.18-1.84.29-2.42.36a3.32,3.32,0,0,1-.89,0,32.23,32.23,0,0,1,3.23-.76c2-.43,4.76-1.13,7.83-1.89l.24-.06.07.23a2,2,0,0,1,.08.35,3.06,3.06,0,0,1-.47,2,4.39,4.39,0,0,1-1.37,1.31h0l-2.57.88-.07-.42a5.09,5.09,0,0,1,3.52,1.61A2.69,2.69,0,0,1,148.78,118.47Z" transform="translate(-34.59 -57.01)" style="fill:#eb996e"/><path d="M148.11,113.38c.09,0,.27.5.83,1a.94.94,0,0,0,1.09.16,1.43,1.43,0,0,0,.49-1.36c-.13-1.24-.2-2.4-.31-3.2a5.4,5.4,0,0,1-.17-1.34c.08,0,.31.44.53,1.27a23.64,23.64,0,0,1,.47,3.24,1.83,1.83,0,0,1-.76,1.8,1.34,1.34,0,0,1-1.59-.29,2.47,2.47,0,0,1-.52-.9C148.1,113.53,148.08,113.4,148.11,113.38Z" transform="translate(-34.59 -57.01)" style="fill:#eb996e"/><path d="M110.73,149.66c2.66-.16,5.13,1.46,7,3.4s3.25,4.24,5.16,6.11c1.42,1.39,3.14,2.59,4,4.38,1.37,2.86.22,6.55,2,9.21,1,1.49,2.69,2.37,3.7,3.84,1.25,1.85,1.16,4.27.88,6.49a7.64,7.64,0,0,1-1.57,4.3,7.36,7.36,0,0,1-3.15,1.74,45,45,0,0,1-27,.58" transform="translate(-34.59 -57.01)" style="fill:#263238"/><path d="M92.4,167.49a13.75,13.75,0,0,1,11.93-15.35l.42,0a14,14,0,0,1,14.94,12,145.66,145.66,0,0,1,1.76,15.16c-.09,7.06-4.22,9.8-5.89,10.63a9.2,9.2,0,0,1-1.86.46h0v0l1.57,8.1c.71,5.31-2.25,10-7.55,10.81s-9.47-3.3-10.28-8.61Z" transform="translate(-34.59 -57.01)" style="fill:#ffbe9d"/><path d="M118.47,168.26c-.11.16-1-.34-2.24-.16s-2,.9-2.13.77,0-.33.37-.67a3.14,3.14,0,0,1,1.68-.8,3,3,0,0,1,1.81.31C118.37,167.94,118.53,168.18,118.47,168.26Z" transform="translate(-34.59 -57.01)" style="fill:#263238"/><path d="M107.85,170.56c-.12.16-1-.34-2.24-.16s-2,.9-2.14.78,0-.34.37-.67a3,3,0,0,1,1.69-.8,2.92,2.92,0,0,1,1.81.3C107.74,170.24,107.91,170.48,107.85,170.56Z" transform="translate(-34.59 -57.01)" style="fill:#263238"/><path d="M112,176.2a8.93,8.93,0,0,1,1.89-.63c.3-.08.58-.18.6-.39a1.57,1.57,0,0,0-.34-.88l-1.24-2.19a41.68,41.68,0,0,1-2.91-5.78,40,40,0,0,1,3.37,5.53c.42.77.82,1.51,1.21,2.21a1.83,1.83,0,0,1,.33,1.18.79.79,0,0,1-.44.52,2.19,2.19,0,0,1-.5.14A7.28,7.28,0,0,1,112,176.2Z" transform="translate(-34.59 -57.01)" style="fill:#263238"/><path d="M113.65,190.39s-4.55,1.05-10.82-1.58c0,0,2.7,5.83,11.25,3.76Z" transform="translate(-34.59 -57.01)" style="fill:#eb996e"/><path d="M111.89,179.15a2.16,2.16,0,0,0-2-.51,2,2,0,0,0-1.25.92,1.29,1.29,0,0,0,.11,1.44,1.49,1.49,0,0,0,1.63.17,4.77,4.77,0,0,0,1.39-1.14,1.41,1.41,0,0,0,.29-.4.4.4,0,0,0-.07-.44" transform="translate(-34.59 -57.01)" style="fill:#eb996e"/><path d="M108.59,177.54c.19,0,.38,1.26,1.62,2s2.61.41,2.64.59-.27.3-.85.4a3.23,3.23,0,0,1-2.19-.43,2.85,2.85,0,0,1-1.28-1.7C108.4,177.89,108.5,177.55,108.59,177.54Z" transform="translate(-34.59 -57.01)" style="fill:#263238"/><path d="M107,166.67c-.07.35-1.29.36-2.67.74s-2.45.92-2.68.65c-.1-.12,0-.46.46-.84a4.8,4.8,0,0,1,4.07-1.06C106.76,166.29,107.05,166.51,107,166.67Z" transform="translate(-34.59 -57.01)" style="fill:#263238"/><path d="M117.27,164.58c-.17.3-1,.14-2,.27s-1.8.45-2,.19,0-.42.31-.73a2.92,2.92,0,0,1,1.58-.68,2.77,2.77,0,0,1,1.69.31C117.18,164.17,117.34,164.43,117.27,164.58Z" transform="translate(-34.59 -57.01)" style="fill:#263238"/><path d="M121.07,162.55c-1.46,2.23-6.09.85-8.89-.68A6.65,6.65,0,0,1,103.1,160c-1.6,2-4.85,1.37-6-.93a7.33,7.33,0,0,1,1.11-7.47,10.41,10.41,0,0,1,6.36-3.46,14.76,14.76,0,0,1,15,6.17c1.54,2.33,2.47,5.46,1.55,8.25" transform="translate(-34.59 -57.01)" style="fill:#263238"/><path d="M98.59,151.43c-5.25-1-10.31,4.23-10.84,8-.91,6.5,0,7.31-1.22,10.42-.77,2-3.44,4.1-4.49,6.19-1.14,2.24-1.13,6-.34,8.42.66,2,3.37,7.63,3.37,7.63s7.8-.25,11.79-1.27a6.6,6.6,0,0,0,2.82-1.32c.76-.69-.81-3.07-.66-4.08.41-2.88,2.56-4.55,2-7.39-.82-3.77-3.79-4-3.73-7.83,0-2,3.09-5,3.37-7s1.46-9.1-2-11.72" transform="translate(-34.59 -57.01)" style="fill:#263238"/><path d="M89.71,192.3s-.38-.44-1-1.24a17.09,17.09,0,0,1-2.32-3.69,12.18,12.18,0,0,1-1.14-6.26,9.92,9.92,0,0,1,3.46-6.8c1.08-.87,2.31-1.53,3.36-2.41a6.63,6.63,0,0,0,2.19-3.26,21.64,21.64,0,0,0,.65-3.47,15.57,15.57,0,0,1,.59-2.95A5.16,5.16,0,0,1,98.13,159a4.34,4.34,0,0,1,1.55-.32,1,1,0,0,0-.42-.06,3.08,3.08,0,0,0-1.2.22,5.18,5.18,0,0,0-2.9,3.27,14.63,14.63,0,0,0-.67,3,20.56,20.56,0,0,1-.68,3.39,6.07,6.07,0,0,1-2.07,3c-1,.84-2.24,1.49-3.37,2.41A10.26,10.26,0,0,0,84.79,181a12.36,12.36,0,0,0,1.26,6.44,16,16,0,0,0,2.48,3.67c.35.38.65.67.85.85A1.67,1.67,0,0,0,89.71,192.3Z" transform="translate(-34.59 -57.01)" style="fill:#455a64"/><path d="M127.87,188.9a2.35,2.35,0,0,0,.2-.28,9,9,0,0,0,.44-.88,9.65,9.65,0,0,0-.79-8.68,23.72,23.72,0,0,0-2-2.47,6.6,6.6,0,0,1-1.56-2.82c-.47-2.19.25-4.4.1-6.44a10.84,10.84,0,0,0-1.44-5.15,8.82,8.82,0,0,0-2.44-2.65,7.23,7.23,0,0,0-.84-.51l-.31-.14c.32.28.65.54,1,.79a9.28,9.28,0,0,1,2.27,2.68,10.78,10.78,0,0,1,1.29,5,20.09,20.09,0,0,1-.19,3.1,10.61,10.61,0,0,0,.07,3.42,7.11,7.11,0,0,0,1.66,3,23,23,0,0,1,2,2.41,9.32,9.32,0,0,1,1.5,4.91,10,10,0,0,1-.52,3.48C128.06,188.47,127.83,188.88,127.87,188.9Z" transform="translate(-34.59 -57.01)" style="fill:#455a64"/><path d="M105.66,148.92a25.44,25.44,0,0,1,3.38.19,12.3,12.3,0,0,1,7,3.78,15.28,15.28,0,0,1,3.37,7.29,19.22,19.22,0,0,1,.17,3.39,3.14,3.14,0,0,0,.19-.91,10.62,10.62,0,0,0,0-2.52,14.68,14.68,0,0,0-3.35-7.56,12.09,12.09,0,0,0-7.3-3.79,10.71,10.71,0,0,0-2.53,0A3,3,0,0,0,105.66,148.92Z" transform="translate(-34.59 -57.01)" style="fill:#455a64"/><path d="M113.2,159.29a2.65,2.65,0,0,0,.11-.79,8,8,0,0,0-.23-2.18,9,9,0,0,0-10.8-6.74l-.45.12a8.19,8.19,0,0,0-2,.85c-.44.28-.66.46-.64.49a15.66,15.66,0,0,1,2.73-1,8.94,8.94,0,0,1,10.86,6.39A17.31,17.31,0,0,1,113.2,159.29Z" transform="translate(-34.59 -57.01)" style="fill:#455a64"/><path d="M90.56,238.26s3.46,7.88,3.26,11.61-3.77,15.85-3.77,15.85l42.29,3.95.19-9.78-1.27-40.23,23.58-35.87L137,173.45,119.65,197l-4.39-1.7-19,2.4V201l-.54.06a39,39,0,0,0-11.82,4.63,19.81,19.81,0,0,0-9.06,20.07c.77,4.8,2.27,10.63,5.15,14C85.53,246.22,90.56,238.26,90.56,238.26Z" transform="translate(-34.59 -57.01)" style="fill:#fe7401"/><path d="M84.56,219.48S82.4,207.2,83,206.31c.74-1.05,9.63-4.87,9.76-4.48l1.95,13.5Z" transform="translate(-34.59 -57.01)" style="fill:#fafafa"/><polygon points="86.01 163.15 85 186.7 93.89 186.7 93.89 163.15 86.01 163.15" style="fill:#fafafa"/><path d="M105.89,231.94a2.09,2.09,0,0,1,.5,0h1.53l5.85-.09h.17V232c.06,5.65.09,14.1.09,23.55v.26h-9.42v-.26c.33-6.79.63-12.69.84-17,.12-2,.21-3.67.28-4.87a11.74,11.74,0,0,1,.09-1.29,1.48,1.48,0,0,1,0-.42,3.84,3.84,0,0,1,0,.48v1.34c0,1.22-.08,2.88-.14,4.94-.15,4.23-.36,10.07-.6,16.8l-.25-.26h8.89l-.26.26c0-9.45,0-17.9.09-23.55l.17.17L108,232h-1.57Z" transform="translate(-34.59 -57.01)" style="fill:#fafafa"/><polygon points="105.59 148.58 96.21 142.65 104.45 130.62 114.06 136.2 105.59 148.58" style="fill:#fafafa"/><g style="opacity:0.4000000059604645"><rect x="68.68" y="149.3" width="27.53" height="8.93" style="fill:#fff"/></g><path d="M130.4,230.6a2.26,2.26,0,0,1,0-.82c.07-.53.16-1.29.24-2.22A40.06,40.06,0,0,0,129.3,213c-.5-1.81-.91-2.91-.83-2.94s.17.24.38.73a20.65,20.65,0,0,1,.81,2.1,33.52,33.52,0,0,1,1.5,7.28,33,33,0,0,1-.15,7.43,20.94,20.94,0,0,1-.41,2.21A2.42,2.42,0,0,1,130.4,230.6Z" transform="translate(-34.59 -57.01)" style="fill:#263238"/><path d="M143.75,177.36a14,14,0,0,1-1.61,2.07c-1,1.23-2.51,2.91-4.16,4.75l-1.76,1.94-.15.17-.18-.12c-1.51-1-2.8-1.93-3.7-2.58a6.83,6.83,0,0,1-1.39-1.12,8.47,8.47,0,0,1,1.56.86c.95.58,2.28,1.42,3.81,2.42h-.32l1.74-2c1.65-1.84,3.16-3.47,4.27-4.64A13.62,13.62,0,0,1,143.75,177.36Z" transform="translate(-34.59 -57.01)" style="fill:#fafafa"/><path d="M153.47,185.87a16.56,16.56,0,0,1-2.77-1.28c-1.69-.85-4-2.07-6.53-3.43s-4.81-2.63-6.45-3.56a17.86,17.86,0,0,1-2.6-1.61,17,17,0,0,1,2.78,1.28c1.68.86,4,2.07,6.52,3.43s4.81,2.63,6.45,3.56A17.86,17.86,0,0,1,153.47,185.87Z" transform="translate(-34.59 -57.01)" style="fill:#263238"/><path d="M58.35,431.12,53.82,451.6l-8.26,15.18a2.15,2.15,0,0,0,.84,2.92l.16.08h0a2.15,2.15,0,0,0,2-.09c3.84-2.22,17.93-10.46,18.18-12,.29-1.76,6.22-21.3,6.22-21.3Z" transform="translate(-34.59 -57.01)" style="fill:#fe7401"/><g style="opacity:0.6000000238418579"><path d="M46.55,469.76,67,456.32l-.21.86A3.25,3.25,0,0,1,65.58,459c-1.67,1.2-6.34,4.43-17,10.65a2.14,2.14,0,0,1-2,.07Z" transform="translate(-34.59 -57.01)" style="fill:#fff"/></g><g style="opacity:0.6000000238418579"><path d="M64.47,448.72a1.3,1.3,0,0,0-.75,1.57,1.24,1.24,0,0,0,1.54.75,1.38,1.38,0,0,0,.79-1.66,1.31,1.31,0,0,0-1.7-.61" transform="translate(-34.59 -57.01)" style="fill:#fff"/></g><path d="M53.39,462A6.31,6.31,0,0,0,52,460a6.64,6.64,0,0,0-2.24-1c0-.06.29-.15.79-.1a3.32,3.32,0,0,1,1.74.77,3.27,3.27,0,0,1,1.07,1.59C53.49,461.68,53.45,462,53.39,462Z" transform="translate(-34.59 -57.01)" style="fill:#263238"/><path d="M51.27,464.37c-.12.06-.61-.76-1.59-1.32a15.87,15.87,0,0,0-1.92-.74,2.38,2.38,0,0,1,2.16.34C51,463.3,51.39,464.34,51.27,464.37Z" transform="translate(-34.59 -57.01)" style="fill:#263238"/><path d="M57,459.16a23,23,0,0,0-2.32-2.2,21.8,21.8,0,0,0-2.85-1.45A5.89,5.89,0,0,1,57,459.16Z" transform="translate(-34.59 -57.01)" style="fill:#263238"/><path d="M58.85,453.05c-.08.11-1.09-.64-2.54-1.05s-2.7-.35-2.72-.48a4.11,4.11,0,0,1,2.85,0A4.12,4.12,0,0,1,58.85,453.05Z" transform="translate(-34.59 -57.01)" style="fill:#263238"/><path d="M60.34,447.07a10.51,10.51,0,0,0-2.63-1.17,10.61,10.61,0,0,0-2.87,0s.27-.25.8-.41a4.68,4.68,0,0,1,2.17-.06,4.81,4.81,0,0,1,2,.92C60.2,446.73,60.38,447,60.34,447.07Z" transform="translate(-34.59 -57.01)" style="fill:#263238"/><path d="M58,444.77a1.57,1.57,0,0,1,.16-.77,5.46,5.46,0,0,1,1.11-1.87,2.41,2.41,0,0,1,1.3-.89.88.88,0,0,1,.9.42,1.44,1.44,0,0,1,.09,1,3,3,0,0,1-3.25,2.1,3.53,3.53,0,0,1-2.93-2.62,1.26,1.26,0,0,1,.19-1,.83.83,0,0,1,1-.22,3.06,3.06,0,0,1,1.17,1,6.33,6.33,0,0,1,1,1.93,1.89,1.89,0,0,1,.14.78,9.6,9.6,0,0,0-1.4-2.5,2.63,2.63,0,0,0-1-.87.43.43,0,0,0-.53.12.81.81,0,0,0-.08.66,3.15,3.15,0,0,0,2.56,2.24,2.64,2.64,0,0,0,2.79-1.74,1.05,1.05,0,0,0,0-.7.45.45,0,0,0-.49-.24,2.15,2.15,0,0,0-1.11.73A8.31,8.31,0,0,0,58,444.77Z" transform="translate(-34.59 -57.01)" style="fill:#263238"/><g style="opacity:0.30000001192092896"><polygon points="23.23 376.33 22.62 379.25 37.09 383.49 38.33 379.39 23.76 374.11 23.23 376.33"/></g><path d="M124.65,438.7l-1.23,16.37s16.23,6.74,16.3,9.79l-31.83-1.23.86-25.59Z" transform="translate(-34.59 -57.01)" style="fill:#fe7401"/><g style="opacity:0.6000000238418579"><path d="M113.63,453.31a1.3,1.3,0,0,0-.95,1.45,1.25,1.25,0,0,0,1.42,1,1.37,1.37,0,0,0,1-1.54,1.31,1.31,0,0,0-1.6-.84" transform="translate(-34.59 -57.01)" style="fill:#fff"/></g><g style="opacity:0.6000000238418579"><path d="M107.89,463.63l.19-2.58,30.45,2.15s1.39.67,1.19,1.66Z" transform="translate(-34.59 -57.01)" style="fill:#fff"/></g><path d="M123.94,454.93c0,.15-.79.19-1.57.66s-1.22,1.11-1.36,1.05.13-1,1.09-1.51S124,454.79,123.94,454.93Z" transform="translate(-34.59 -57.01)" style="fill:#263238"/><path d="M127.23,456.44c0,.15-.65.39-1.21,1s-.73,1.32-.89,1.31-.21-.9.49-1.67S127.23,456.29,127.23,456.44Z" transform="translate(-34.59 -57.01)" style="fill:#263238"/><path d="M129,460.51c-.14,0-.33-.76.1-1.59s1.18-1.15,1.24-1-.41.57-.75,1.26S129.13,460.5,129,460.51Z" transform="translate(-34.59 -57.01)" style="fill:#263238"/><path d="M123.81,451.17c-.07.14-.78-.11-1.66-.08s-1.57.28-1.65.14.6-.67,1.64-.68S123.89,451.05,123.81,451.17Z" transform="translate(-34.59 -57.01)" style="fill:#263238"/><g style="opacity:0.30000001192092896"><polygon points="89.81 384.93 89.6 387.85 73.96 387.1 74.06 383.73 89.81 384.93"/></g><path d="M124,447.86a3,3,0,0,1-1.6-.07,7.35,7.35,0,0,1-1.65-.58,7.14,7.14,0,0,1-.89-.52,1.61,1.61,0,0,1-.47-.39.68.68,0,0,1,0-.83.84.84,0,0,1,.7-.33,2,2,0,0,1,.59.1,6,6,0,0,1,1,.38,5.49,5.49,0,0,1,1.43,1c.71.72.94,1.31.89,1.34s-.41-.46-1.14-1a6.93,6.93,0,0,0-1.4-.86,5.63,5.63,0,0,0-.9-.31c-.33-.11-.62-.12-.71,0s0,.08,0,.18a1.54,1.54,0,0,0,.34.28,8.73,8.73,0,0,0,.82.52,9.27,9.27,0,0,0,1.52.65A11,11,0,0,1,124,447.86Z" transform="translate(-34.59 -57.01)" style="fill:#263238"/><path d="M123.78,448.07a2.57,2.57,0,0,1-.36-1.55,5.43,5.43,0,0,1,.29-1.74,4.81,4.81,0,0,1,.44-.95,1.32,1.32,0,0,1,1-.77.75.75,0,0,1,.65.47,2,2,0,0,1,.14.59,3.91,3.91,0,0,1,0,1.08,3.76,3.76,0,0,1-.75,1.62c-.65.8-1.31,1-1.32.91a8,8,0,0,0,1-1.14,3.76,3.76,0,0,0,.56-1.48,2.84,2.84,0,0,0,0-.92c0-.34-.15-.62-.28-.59a1.16,1.16,0,0,0-.57.5,5.21,5.21,0,0,0-.43.85,5.77,5.77,0,0,0-.37,1.58C123.73,447.46,123.87,448.05,123.78,448.07Z" transform="translate(-34.59 -57.01)" style="fill:#263238"/><path d="M84.32,229l8.23.46a41.43,41.43,0,0,0,2.33,6.75c6.63-11.51,11.77-26.92,13.05-33.12-.19-.62-.41-1.3-.68-2.07a8.68,8.68,0,0,1,.1-3.48c.23-1.38.61-3.24.73-4.1.35-2.62.77-3,1.69-2.73,1.24.4-.51,7.35.5,7.5.55.08,1.22-2.3,1.41-4.25s1.08-8,1.73-8.37c1-.59,1.77.34,1.53,2.29s-.55,7.84.49,7.92,1.87-9.89,1.87-9.89-.16-2.16,1-2.11c2.16.09.47,10.6.29,11.59-.13.69,1,.82,1.09.07s.62-10,2.82-9.89c1.68.06-1.31,8.66-.36,10.65s1.6-6.77,3.21-6.65c.6,0,1,.16-.06,5.12a110.71,110.71,0,0,1-3.85,11.63c-2.55,13.75-13.74,57.74-31.28,49.69-9.82-4.51-14.4-26.82-14.4-26.82Z" transform="translate(-34.59 -57.01)" style="fill:#ffbe9d"/><path d="M121.47,206.31a1.71,1.71,0,0,1,.09-.3c.07-.22.17-.51.29-.86.27-.8.66-1.91,1.15-3.32s1.09-3.21,1.69-5.29a34.48,34.48,0,0,0,.78-3.37c.11-.6.23-1.22.3-1.86a5,5,0,0,0,0-.95c0-.33-.07-.59-.33-.6s-.45.15-.63.43a5.53,5.53,0,0,0-.42.93c-.23.66-.42,1.36-.6,2.08s-.35,1.46-.57,2.21a3.32,3.32,0,0,1-.5,1.16.4.4,0,0,1-.55.07.9.9,0,0,1-.23-.32,2.34,2.34,0,0,1-.18-.64,21.54,21.54,0,0,1,.5-5c.15-.84.3-1.69.41-2.55a11.38,11.38,0,0,0,.1-1.3c0-.39,0-.93-.23-1s-.6.16-.8.52a5.15,5.15,0,0,0-.55,1.19,19,19,0,0,0-.65,2.68c-.16.93-.28,1.87-.39,2.82a13,13,0,0,1-.14,1.44l-.06.73a1.07,1.07,0,0,1-.33.84.84.84,0,0,1-1,0,.76.76,0,0,1-.31-.47.62.62,0,0,1,0-.27v-.18c.07-.49.15-1,.22-1.47q.21-1.5.36-3t.18-3a10.11,10.11,0,0,0-.3-3,1,1,0,0,0-.42-.61.53.53,0,0,0-.57.18,2.72,2.72,0,0,0-.31,1.63h0c-.18,2-.4,3.91-.68,5.81a27.27,27.27,0,0,1-.54,2.83,5.68,5.68,0,0,1-.22.7,1.44,1.44,0,0,1-.47.72.52.52,0,0,1-.62-.13,1.11,1.11,0,0,1-.22-.38,3.47,3.47,0,0,1-.19-.72,26.61,26.61,0,0,1,0-5.5,14.71,14.71,0,0,0,.13-2.57,1.39,1.39,0,0,0-.46-1,.51.51,0,0,0-.43-.07.72.72,0,0,0-.24.1.33.33,0,0,0-.12.14,12,12,0,0,0-.66,2.34c-.16.8-.3,1.6-.43,2.39s-.24,1.56-.34,2.33-.16,1.53-.31,2.28a10.89,10.89,0,0,1-.59,2.17,2.38,2.38,0,0,1-.24.51c-.12.16-.18.37-.5.47a.43.43,0,0,1-.43-.18,1.2,1.2,0,0,1-.13-.31,3.43,3.43,0,0,1-.07-.56c0-1.43.2-2.74.27-4a9.22,9.22,0,0,0,0-1.82.77.77,0,0,0-.28-.65.74.74,0,0,0-.68,0,2.43,2.43,0,0,0-.62,1.37c-.12.52-.17,1-.27,1.53-.35,2-.72,3.69-.89,5.08a6.37,6.37,0,0,0,0,1.85c.12.5.29,1,.38,1.3l.24.82a.89.89,0,0,1,.07.28.9.9,0,0,1-.11-.27l-.29-.79c-.12-.36-.29-.77-.44-1.32a6.65,6.65,0,0,1,0-1.89c.15-1.42.49-3.11.81-5.1.09-.49.14-1,.26-1.55a4.4,4.4,0,0,1,.22-.81,1.42,1.42,0,0,1,.52-.77,1.1,1.1,0,0,1,1,0c.4.23.41.61.48.9a9.94,9.94,0,0,1,0,1.89c-.06,1.28-.26,2.62-.23,4a3.93,3.93,0,0,0,.06.48c0,.16.12.22.1.19s.16-.14.23-.27.15-.3.22-.46a12.72,12.72,0,0,0,.55-2.1c.14-.72.18-1.48.29-2.25s.2-1.56.33-2.35.26-1.6.42-2.41a11.33,11.33,0,0,1,.71-2.48.74.74,0,0,1,.29-.32,2.17,2.17,0,0,1,.35-.15,1,1,0,0,1,.8.13,1.84,1.84,0,0,1,.69,1.28,5.24,5.24,0,0,1,0,1.37c0,.43-.08.87-.11,1.31a26.77,26.77,0,0,0,0,5.37,4.34,4.34,0,0,0,.16.62,1,1,0,0,0,.13.22h0v0a1.83,1.83,0,0,0,.24-.46c.07-.21.14-.43.2-.65.22-.89.38-1.83.52-2.77.28-1.89.49-3.82.67-5.78h0a3.25,3.25,0,0,1,.42-2,1,1,0,0,1,1.17-.34,1.42,1.42,0,0,1,.72.92,10.53,10.53,0,0,1,.33,3.16c0,1-.09,2.06-.19,3.08s-.22,2-.36,3c-.07.5-.15,1-.22,1.48a.72.72,0,0,0,0,.42.39.39,0,0,0,.39,0c.11-.07.12-.22.14-.49l.07-.73c0-.48.1-1,.14-1.44.11-1,.24-1.92.4-2.85a20.18,20.18,0,0,1,.67-2.76,5.71,5.71,0,0,1,.61-1.3,2.06,2.06,0,0,1,.54-.56.8.8,0,0,1,1.13.07.8.8,0,0,1,.2.55,4.17,4.17,0,0,1,0,.71,10.26,10.26,0,0,1-.12,1.35c-.11.88-.27,1.73-.42,2.57a20.91,20.91,0,0,0-.52,4.86,1.75,1.75,0,0,0,.14.51,1,1,0,0,0,.1.17h0v-.05a3.35,3.35,0,0,0,.41-1c.22-.73.39-1.47.58-2.19s.38-1.43.63-2.11a5.32,5.32,0,0,1,.46-1,1.46,1.46,0,0,1,.38-.44.85.85,0,0,1,.3-.15.86.86,0,0,1,.32,0,.62.62,0,0,1,.53.39,1.5,1.5,0,0,1,.11.55,5.6,5.6,0,0,1-.06,1c-.07.66-.2,1.28-.32,1.89a32.67,32.67,0,0,1-.83,3.38c-.62,2.08-1.25,3.84-1.77,5.27s-1,2.55-1.24,3.29c-.14.35-.26.63-.34.85A.79.79,0,0,0,121.47,206.31Z" transform="translate(-34.59 -57.01)" style="fill:#eb996e"/><path d="M75.7,230c1.59,5.62,4.7,14.3,8,23.46a1.59,1.59,0,0,0,2.93.14l8.2-17.35S92.83,222,93,222.5s-16.92,1.85-16.92,1.85Z" transform="translate(-34.59 -57.01)" style="fill:#fe7401"/><path d="M97.88,231.33a1.92,1.92,0,0,0-.63-.28,1.57,1.57,0,0,0-1.59.42l-.21.24-.13-.31c-.44-1.12-1-2.57-1.56-4.17a50,50,0,0,1-2.15-6.75,45.64,45.64,0,0,1,2.64,6.58c.58,1.59,1.08,3.06,1.45,4.2l-.34-.06a1.69,1.69,0,0,1,1.09-.51,1.78,1.78,0,0,1,.88.14C97.78,231,97.9,231.31,97.88,231.33Z" transform="translate(-34.59 -57.01)" style="fill:#263238"/><path d="M86.25,247.83a13.28,13.28,0,0,1,1.19-2.46c.79-1.48,1.91-3.52,3.19-5.75s2.45-4.24,3.32-5.68a14.53,14.53,0,0,1,1.51-2.28,14.69,14.69,0,0,1-1.19,2.46c-.79,1.49-1.92,3.52-3.19,5.76s-2.45,4.24-3.32,5.68A14.92,14.92,0,0,1,86.25,247.83Z" transform="translate(-34.59 -57.01)" style="fill:#263238"/><path d="M80.79,245.22a8.93,8.93,0,0,1,1.43-1c.93-.6,2.28-1.44,3.92-2.44l-.09.27c-.91-2.13-2-4.62-3.12-7.3-1.42-3.37-2.69-6.47-3.62-8.78l.28.09c-1.3.71-2.36,1.27-3.09,1.65a6.3,6.3,0,0,1-1.18.54,6,6,0,0,1,1.07-.73c.71-.44,1.73-1.05,3-1.79l.18-.11.09.2c1,2.28,2.32,5.35,3.74,8.73,1.12,2.69,2.15,5.19,3,7.33l.07.18-.16.09c-1.66,1-3,1.75-4,2.28A8.77,8.77,0,0,1,80.79,245.22Z" transform="translate(-34.59 -57.01)" style="fill:#fafafa"/><path d="M125.28,442.82a5.87,5.87,0,0,0,5.69-5.51c1.71-27.68,9.41-153.59,7.87-157.54-1.74-4.44-6.31-19.88-6.31-19.88L91.7,258s-10.16,16-11.62,22.18C78.76,285.69,41.77,402.25,37.17,427a5.07,5.07,0,0,0,3.53,5.78Z" transform="translate(-34.59 -57.01)" style="fill:#263238"/><path d="M99.76,258.87s-.05.15-.18.44L99,260.57l-2.28,4.82c-.45,1.07-.94,2.26-1.49,3.55s-1.15,2.71-1.69,4.26-1.2,3.19-1.81,4.95-1.18,3.64-1.82,5.61L88.1,290c-.59,2.18-1.15,4.46-1.77,6.82s-1.11,4.82-1.7,7.35S83.51,309.31,83,312c-1.1,5.36-2.18,11-3.32,16.86s-2.36,11.9-3.79,18.06C75.2,350,74.4,353,73.66,356s-1.61,5.9-2.49,8.75c-1.73,5.71-3.63,11.15-5.57,16.27-3.92,10.25-8,19.26-11.5,26.75s-6.57,13.47-8.67,17.6L43,430.14c-.27.52-.49.93-.65,1.22a3.3,3.3,0,0,1-.23.41,3.3,3.3,0,0,1,.19-.43c.14-.3.34-.72.6-1.25.55-1.12,1.34-2.73,2.36-4.79,2-4.15,5-10.16,8.51-17.67s7.5-16.52,11.39-26.76c1.92-5.12,3.81-10.55,5.54-16.25.87-2.84,1.65-5.77,2.47-8.73s1.54-6,2.21-9.09c1.43-6.15,2.63-12.21,3.8-18.05s2.23-11.49,3.35-16.85c.53-2.69,1.13-5.3,1.67-7.83s1.17-5,1.72-7.36,1.2-4.64,1.8-6.82,1.26-4.25,1.85-6.24L91.42,278c.62-1.76,1.27-3.4,1.85-4.94s1.17-3,1.74-4.25,1.07-2.48,1.53-3.54c1-2.09,1.82-3.7,2.36-4.79l.63-1.23Z" transform="translate(-34.59 -57.01)" style="fill:#455a64"/><path d="M63.71,435.24a1.62,1.62,0,0,1,.1-.45c.1-.3.21-.77.36-1.33l1.42-5.1c1.23-4.46,3-10.86,5.2-18.76s4.73-17.37,7.48-27.88c1.36-5.26,2.78-10.78,4.26-16.5s2.91-11.68,4.43-17.76,2.9-12,4.29-17.8,2.63-11.31,3.87-16.6c2.41-10.59,4.53-20.15,6.26-28.18s3.1-14.52,4.07-19c.47-2.23.84-4,1.1-5.18.13-.57.23-1,.3-1.34a2.93,2.93,0,0,1,.12-.46,3.81,3.81,0,0,1-.07.47c-.06.32-.14.77-.25,1.35-.23,1.21-.57,3-1,5.2L104,274.1c-.67,3.2-1.42,6.84-2.26,10.86-1.68,8-3.76,17.6-6.16,28.21-1.21,5.29-2.47,10.86-3.84,16.61s-2.81,11.71-4.27,17.81-3,12-4.45,17.75-2.91,11.25-4.28,16.5c-2.79,10.51-5.37,20-7.59,27.86l-3,10.67c-.91,3.13-1.7,5.83-2.34,8s-1.16,3.89-1.51,5.08c-.17.56-.31,1-.4,1.31A2.29,2.29,0,0,1,63.71,435.24Z" transform="translate(-34.59 -57.01)" style="fill:#455a64"/><path d="M112.37,259a2.37,2.37,0,0,0,.07.46l.17,1.38c.07.61.16,1.36.26,2.23s.13,1.92.2,3.07c0,.58.07,1.19.1,1.83s0,1.32,0,2v2.2c0,.76-.07,1.56-.1,2.38s-.08,1.67-.13,2.54-.16,1.78-.25,2.71c-.13,1.86-.45,3.8-.7,5.86-.62,4.09-1.44,8.54-2.49,13.29s-2.28,9.79-3.56,15.1-2.61,10.89-3.71,16.72-2,11.91-2.82,18.16S98,361.27,97.3,367.18s-1.3,11.61-2,17l-1.08,7.92c-.42,2.55-.79,5-1.21,7.44s-.85,4.7-1.32,6.91-.94,4.32-1.41,6.33-1,3.91-1.5,5.71-1.06,3.46-1.54,5c-.25.78-.47,1.54-.73,2.26s-.52,1.41-.76,2.07c-.49,1.31-.94,2.52-1.35,3.6-.88,2.14-1.65,3.76-2.13,4.88l-.58,1.26c-.13.28-.21.42-.21.42a1.06,1.06,0,0,1,.16-.45c.16-.29.31-.73.53-1.28.46-1.12,1.19-2.76,2-4.9l1.29-3.62.75-2.06c.25-.72.46-1.49.7-2.27.47-1.57,1-3.24,1.5-5l1.46-5.7,1.38-6.33c.45-2.21.84-4.52,1.29-6.91s.77-4.88,1.17-7.43.7-5.2,1.06-7.91c.67-5.42,1.32-11.11,2-17s1.31-12,2.11-18.29,1.74-12.35,2.84-18.2,2.45-11.43,3.74-16.73,2.55-10.35,3.61-15.08,1.9-9.18,2.55-13.26c.26-2,.59-4,.73-5.84.1-.92.18-1.82.27-2.69s.1-1.72.15-2.54.11-1.6.12-2.37,0-1.49,0-2.19v-2c0-.63-.06-1.24-.08-1.82-.06-1.15-.06-2.18-.15-3.06s-.15-1.63-.21-2.24-.09-1.05-.12-1.38A3.13,3.13,0,0,1,112.37,259Z" transform="translate(-34.59 -57.01)" style="fill:#455a64"/><path d="M107.91,441.63a3.43,3.43,0,0,1-.11-.46c-.06-.33-.15-.78-.26-1.36s-.24-1.35-.4-2.23-.37-1.88-.47-3-.28-2.43-.45-3.83-.2-2.94-.32-4.58c0-.82-.1-1.68-.13-2.55s0-1.79,0-2.73V418c0-1,.08-2,.11-3s.09-2.1.13-3.18.18-2.19.26-3.32c.15-2.26.44-4.59.72-7s.68-4.91,1-7.48.84-5.2,1.36-7.89c2-10.79,4.7-22.52,7.2-34.9A348.36,348.36,0,0,0,121.8,316c1.08-10.9,1.49-20.75,1.63-29V275.86c0-3.28-.14-6.12-.24-8.44s-.19-4.11-.24-5.33V260.7c0,.31.06.8.11,1.39.08,1.21.23,3,.33,5.32s.24,5.15.33,8.44.12,7,.1,11.18c-.09,8.29-.47,18.16-1.52,29.07a343.84,343.84,0,0,1-5.22,35.27c-2.5,12.4-5.25,24.12-7.24,34.89-.52,2.68-.93,5.32-1.38,7.87s-.79,5.05-1,7.47-.59,4.74-.74,7c-.1,1.12-.19,2.22-.28,3.3s-.1,2.14-.15,3.17-.08,2.05-.13,3v5.59c0,.87.08,1.72.12,2.54.1,1.64.1,3.18.27,4.57s.28,2.68.4,3.84.29,2.16.42,3l.36,2.23c.09.58.15,1,.21,1.37S107.91,441.63,107.91,441.63Z" transform="translate(-34.59 -57.01)" style="fill:#455a64"/><path d="M130.32,259.79s.05.15.14.45l.39,1.32.61,2.17c.28,1,.52,2,.7,3s.53,2.38.75,3.77.41,2.9.64,4.53.27,3.38.42,5.24.15,3.82.11,5.89a125.42,125.42,0,0,1-.87,13.47c-.53,4.83-1.36,9.95-2.32,15.31l-3.14,16.82c-1.1,5.83-2.06,11.89-2.93,18.12s-1.58,12.32-2.16,18.22-1,11.61-1.34,17-.55,10.61-.65,15.46-.16,9.36-.14,13.48.08,7.85.18,11.12.22,6.09.31,8.39.2,4.07.26,5.3a12.17,12.17,0,0,0,.06,1.38v.48a2.78,2.78,0,0,0-.06-.47l-.11-1.38c-.08-1.21-.22-3-.35-5.3s-.3-5.12-.4-8.39-.21-7-.26-11.13,0-8.64.08-13.49.31-10,.6-15.48.72-11.16,1.31-17.07,1.27-12,2.16-18.25,1.83-12.3,2.94-18.13l3.17-16.81c1-5.36,1.77-10.48,2.36-15.28a125.29,125.29,0,0,0,.93-13.43c0-2.06-.06-4-.07-5.87s-.26-3.59-.38-5.22-.41-3.13-.59-4.52-.5-2.63-.7-3.77a29.34,29.34,0,0,0-.66-3c-.25-.87-.41-1.57-.56-2.17s-.26-1-.34-1.34A3.66,3.66,0,0,1,130.32,259.79Z" transform="translate(-34.59 -57.01)" style="fill:#455a64"/></g><g id="freepik--Icons--inject-198"><rect x="321.5" y="111.81" width="114.62" height="108.71" rx="6.79" transform="translate(-54.11 -2.39) rotate(-8.04)" style="fill:#fe7401"/><path d="M400.11,179.71a4,4,0,0,1-.76.16l-2.19.36L389,181.48l-27.29,4h-.22l-.06-.22c-.41-1.42-.85-2.91-1.29-4.43-3.71-13-7-24.57-9.19-32.14l.18.11-7.28,1-1.94.24a3.86,3.86,0,0,1-.68,0,3.88,3.88,0,0,1,.66-.14l1.93-.32,7.26-1.12h.14v.13l9.38,32.09,1.28,4.44-.28-.19,27.4-3.8,8.14-1.09,2.21-.27A4.87,4.87,0,0,1,400.11,179.71Z" transform="translate(-34.59 -57.01)" style="fill:#ebebeb"/><path d="M359.46,177.43h.19l.56-.11,2.19-.35,8.21-1.26,28.32-4.16-.22.24c.16-4.89.33-10.18.5-15.65.09-2.81.18-5.58.27-8.22l.29.27-33.41,4.71-9.89,1.34-2.67.34-.7.08h-.24l.24-.06.68-.12,2.66-.43,9.88-1.5,33.38-4.88h.3V148c-.08,2.64-.17,5.4-.26,8.22-.18,5.47-.36,10.76-.52,15.65V172H399l-28.35,4-8.22,1.11-2.2.28-.57.06Z" transform="translate(-34.59 -57.01)" style="fill:#ebebeb"/><path d="M372.81,194.27c-.05,0-.1-.34-.35-.88a3.86,3.86,0,0,0-1.69-1.79,3.67,3.67,0,0,0-5,1.48,3.62,3.62,0,0,0-.41,2.26,3.67,3.67,0,0,0,2.84,3,3.71,3.71,0,0,0,3.37-1,3.8,3.8,0,0,0,1.12-2.2c.09-.59,0-.94.09-.94a2,2,0,0,1,.12,1,3.92,3.92,0,0,1-1.07,2.44,4.1,4.1,0,1,1-.92-6.4,3.86,3.86,0,0,1,1.71,2A2.13,2.13,0,0,1,372.81,194.27Z" transform="translate(-34.59 -57.01)" style="fill:#ebebeb"/><path d="M397.52,190.72a7.12,7.12,0,0,0-.35-.88,3.79,3.79,0,0,0-1.7-1.79,3.65,3.65,0,1,0,.84,5.81,3.8,3.8,0,0,0,1.12-2.2c.09-.59,0-.94.09-.94a2,2,0,0,1,.11,1,3.85,3.85,0,0,1-1.06,2.44,4.1,4.1,0,1,1-.92-6.4,3.86,3.86,0,0,1,1.71,2A2.09,2.09,0,0,1,397.52,190.72Z" transform="translate(-34.59 -57.01)" style="fill:#ebebeb"/><circle cx="362.49" cy="87.29" r="11.07" style="fill:#fafafa"/><path d="M402.44,139.36a10.79,10.79,0,0,1-1.17,2c-.78,1.18-1.88,2.78-3.12,4.54l-1.33,1.87-.14.2-.2-.13a36,36,0,0,1-4.48-3.19,36.33,36.33,0,0,1,4.75,2.77l-.34.06,1.32-1.88c1.24-1.76,2.39-3.33,3.24-4.46A10,10,0,0,1,402.44,139.36Z" transform="translate(-34.59 -57.01)" style="fill:#fe7401"/><rect x="336.99" y="237.84" width="88.07" height="92.86" rx="6.79" transform="translate(-22.35 527.24) rotate(-75.85)" style="fill:#455a64"/><path d="M360.41,272.12l.7,19.1,35,8.83L406,284.37s-3.39-2.1-5.86-2.19l4.12-19.1a2.7,2.7,0,0,0-2.06-3.2,2.64,2.64,0,0,0-1,0l-3.77.63-19.75-5-2-1.71A2.63,2.63,0,0,0,372,254a2.67,2.67,0,0,0-.58,1.12L366.75,274A15.38,15.38,0,0,0,360.41,272.12Z" transform="translate(-34.59 -57.01)" style="fill:#fafafa"/><path d="M370.15,284.44a14,14,0,0,0,6.34,6,21.56,21.56,0,0,0,8.58,2c1.61.06,3.4-.08,4.53-1.22s1.27-3,1.3-4.68a22.66,22.66,0,0,0-.52-6.36,7.65,7.65,0,0,0-3.73-5c-2.6-1.26-5.75-.37-8.26,1.05a21.63,21.63,0,0,0-8,7.89" transform="translate(-34.59 -57.01)" style="fill:#e0e0e0"/><rect x="351.62" y="298.58" width="16.7" height="1.91" transform="translate(-53.07 518.35) rotate(-75.85)" style="fill:#263238"/><rect x="363.16" y="296.27" width="8.53" height="1.91" transform="translate(-45.19 523.84) rotate(-75.85)" style="fill:#263238"/><rect x="381.74" y="300.96" width="8.53" height="1.91" transform="translate(-35.7 545.39) rotate(-75.85)" style="fill:#263238"/><rect x="384.83" y="306.97" width="16.7" height="1.91" transform="translate(-36.11 556.9) rotate(-75.85)" style="fill:#263238"/><path d="M371.08,282.78c-.14,0,1.28-6.13,3.17-13.61s3.52-13.52,3.66-13.48-1.27,6.12-3.16,13.61S371.22,282.81,371.08,282.78Z" transform="translate(-34.59 -57.01)" style="fill:#263238"/><path d="M390.87,287.77c-.14,0,1.27-6.13,3.16-13.61s3.53-13.52,3.67-13.49-1.28,6.13-3.17,13.61S391,287.8,390.87,287.77Z" transform="translate(-34.59 -57.01)" style="fill:#263238"/><path d="M400.1,282.18a5.57,5.57,0,0,1-1,0h-.52l-.63.07-.72.09-.79.21A7.28,7.28,0,0,0,393,284.7a9,9,0,0,0-2.21,4.7v.27l-.25-.07-9.37-2.33-10.49-2.68h-.22v-.22a9.83,9.83,0,0,0-.09-4.82,10.52,10.52,0,0,0-1.61-3.4,14.12,14.12,0,0,0-2.3-2.4,3.64,3.64,0,0,1,.75.47A9.27,9.27,0,0,1,369,276a10.28,10.28,0,0,1,1.75,3.46,10.08,10.08,0,0,1,.18,5l-.17-.27,10.51,2.61,9.35,2.39-.29.2a9.38,9.38,0,0,1,2.39-4.92,7.61,7.61,0,0,1,3.68-2.12l.83-.18.74-.05.64-.05h.54A4,4,0,0,1,400.1,282.18Z" transform="translate(-34.59 -57.01)" style="fill:#263238"/><path d="M370.28,284.39c0,.08-.71,0-1.79.24a8.43,8.43,0,0,0-6.36,5.13c-.42,1-.52,1.71-.61,1.69a3.65,3.65,0,0,1,.27-1.82,7.81,7.81,0,0,1,2.53-3.66,8,8,0,0,1,4.12-1.71A3.6,3.6,0,0,1,370.28,284.39Z" transform="translate(-34.59 -57.01)" style="fill:#263238"/><path d="M395.69,300.33c-.08,0,.09-.77.09-2a10.14,10.14,0,0,0-4.07-8.16c-1-.73-1.68-1-1.65-1.12a4.58,4.58,0,0,1,1.86.82,9.33,9.33,0,0,1,4.25,8.47A4.46,4.46,0,0,1,395.69,300.33Z" transform="translate(-34.59 -57.01)" style="fill:#263238"/></g><g id="freepik--Device--inject-198"><path d="M320.67,465.1l-125.83-.58A27.41,27.41,0,0,1,167.56,437l1.33-315.46a27.42,27.42,0,0,1,27.54-27.29l125.83.58a27.4,27.4,0,0,1,27.28,27.52h0L348.21,437.8a27.42,27.42,0,0,1-27.54,27.3Z" transform="translate(-34.59 -57.01)" style="fill:#263238"/><path d="M321,103.68l-24.4-.12a6.08,6.08,0,0,0-6,6.17v4.42a6.06,6.06,0,0,1-5.95,6.17h0l-47.55-.22a6.07,6.07,0,0,1-5.9-6.22v-4.43a6.07,6.07,0,0,0-5.9-6.22h-8.58l-21.35-.09a19.21,19.21,0,0,0-19.29,19.11h0l-1.3,307.91A19.21,19.21,0,0,0,194,449.4h0l125.58.58a19.19,19.19,0,0,0,19.28-19.1h0L340.15,123a19.19,19.19,0,0,0-19.06-19.32Z" transform="translate(-34.59 -57.01)" style="fill:#fafafa"/><path d="M192.44,136.41a.48.48,0,0,1-.36-.16l-1.91-2a.46.46,0,0,1-.14-.35.47.47,0,0,1,.15-.35l1.92-1.83a.49.49,0,0,1,.69,0h0a.5.5,0,0,1,0,.71h0l-1.56,1.48,1.57,1.64a.5.5,0,0,1,0,.71h0A.51.51,0,0,1,192.44,136.41Z" transform="translate(-34.59 -57.01)" style="fill:#263238"/><rect x="156.49" y="339.61" width="136.06" height="35.13" rx="16.12" style="fill:#fe7401"/><path d="M242.93,410.11h3.16a3.89,3.89,0,0,1,.39,7.77h-3.55Zm3.12,7.06a3.18,3.18,0,0,0,.36-6.35h-2.66v6.35Z" transform="translate(-34.59 -57.01)" style="fill:#fafafa"/><path d="M251.4,414a4.08,4.08,0,1,1,4.21,3.95h-.12a3.9,3.9,0,0,1-4.09-3.7Zm7.34,0a3.27,3.27,0,1,0-3.32,3.22h.07a3.14,3.14,0,0,0,3.25-3Z" transform="translate(-34.59 -57.01)" style="fill:#fafafa"/><path d="M267.88,410.11v7.77h-.67l-5-6.3v6.3h-.83v-7.77h.68l5,6.3v-6.3Z" transform="translate(-34.59 -57.01)" style="fill:#fafafa"/><path d="M275.9,417.17v.71h-5.49v-7.77h5.32v.71h-4.5v2.76h4v.7h-4v2.89Z" transform="translate(-34.59 -57.01)" style="fill:#fafafa"/><path d="M211.49,263.81h-4.23v-2h10.82v2h-4.23v10.75h-2.36Z" transform="translate(-34.59 -57.01)" style="fill:#fe7401"/><path d="M229.21,269v5.58h-2.27V269.3c0-1.73-.86-2.57-2.31-2.57a2.59,2.59,0,0,0-2.72,2.93v4.92h-2.27V261.05h2.27V266a4.37,4.37,0,0,1,3.24-1.24C227.48,264.72,229.21,266.05,229.21,269Z" transform="translate(-34.59 -57.01)" style="fill:#fe7401"/><path d="M240.24,268.86v5.7H238.1v-1.19a3.45,3.45,0,0,1-3.06,1.31c-2.22,0-3.63-1.22-3.63-2.91s1.1-2.89,4.05-2.89H238v-.15c0-1.33-.8-2.11-2.42-2.11a4.8,4.8,0,0,0-3,1l-.89-1.65a6.77,6.77,0,0,1,4.11-1.21C238.62,264.72,240.24,266.05,240.24,268.86ZM238,271.51v-1.12h-2.35c-1.55,0-2,.58-2,1.29s.7,1.35,1.86,1.35A2.47,2.47,0,0,0,238,271.51Z" transform="translate(-34.59 -57.01)" style="fill:#fe7401"/><path d="M252.73,269v5.58h-2.28V269.3c0-1.73-.85-2.57-2.31-2.57-1.62,0-2.71,1-2.71,2.93v4.92h-2.28v-9.73h2.17v1.26a4.24,4.24,0,0,1,3.35-1.37C251,264.72,252.73,266.05,252.73,269Z" transform="translate(-34.59 -57.01)" style="fill:#fe7401"/><path d="M259.59,270.39,257.9,272v2.57h-2.28V261.05h2.28v8.15l4.71-4.37h2.73l-4.06,4.08,4.44,5.65H263Z" transform="translate(-34.59 -57.01)" style="fill:#fe7401"/><path d="M281.32,264.83l-4.55,10.51c-.89,2.2-2.13,2.87-3.75,2.87a4,4,0,0,1-2.6-.89l.91-1.67a2.42,2.42,0,0,0,1.67.67c.8,0,1.28-.38,1.71-1.35l.17-.38-4.24-9.76H273l3.06,7.19,3.08-7.19Z" transform="translate(-34.59 -57.01)" style="fill:#fe7401"/><path d="M281.66,269.69a5.18,5.18,0,1,1,5.36,5h-.19a4.9,4.9,0,0,1-5.16-4.62C281.66,269.94,281.66,269.82,281.66,269.69Zm8.07,0a2.89,2.89,0,1,0-2.9,3,2.83,2.83,0,0,0,2.9-2.77A1.77,1.77,0,0,0,289.73,269.69Z" transform="translate(-34.59 -57.01)" style="fill:#fe7401"/><path d="M303.62,264.83v9.73h-2.17v-1.24a4,4,0,0,1-3.13,1.36c-2.5,0-4.19-1.36-4.19-4.29v-5.56h2.28v5.25c0,1.76.83,2.6,2.27,2.6a2.64,2.64,0,0,0,2.66-2.93v-4.92Z" transform="translate(-34.59 -57.01)" style="fill:#fe7401"/><path d="M306.18,273.26a1.4,1.4,0,0,1,1.42-1.4h0a1.41,1.41,0,1,1,0,2.82,1.43,1.43,0,0,1-1.47-1.37Zm.13-11.45H309l-.45,8.52h-1.81Z" transform="translate(-34.59 -57.01)" style="fill:#fe7401"/><circle cx="225.43" cy="159.55" r="26.18" style="fill:#fe7401"/><path d="M272.91,205.51c.33.27-4.56,6.85-10.92,14.69l-3.86,4.68-.53.64-.56-.58c-5-5.13-8.37-8.93-8.13-9.17s4.05,3.15,9.17,8.12L257,224l3.78-4.73C267.14,211.38,272.57,205.24,272.91,205.51Z" transform="translate(-34.59 -57.01)" style="fill:#fff"/><path d="M297.21,206c-.78-2.75-4.35-2.48-4.35-2.48l.09,1.91c2.07-.36,3.35,2.06,3.35,2.06Z" transform="translate(-34.59 -57.01)" style="fill:#fe7401"/><path d="M221.37,211.78c-.77-2.75-4.35-2.49-4.35-2.49l.1,1.92c2.07-.36,3.35,2.06,3.35,2.06Z" transform="translate(-34.59 -57.01)" style="fill:#e0e0e0"/><path d="M263.14,173.73c4.15,1.26,6.73-3.52,6.73-3.52l-2.52-1.44c-1.24,2.93-5.38,2.59-5.38,2.59Z" transform="translate(-34.59 -57.01)" style="fill:#e0e0e0"/><path d="M240.13,178.88c-1.93.21-2.16,2.63-2.16,2.63l1.29.15c0-1.42,1.77-2,1.77-2Z" transform="translate(-34.59 -57.01)" style="fill:#fe7401"/><path d="M319.67,196.6c.28-1.92-2-2.75-2-2.75l-.47,1.21c1.38.35,1.51,2.21,1.51,2.21Z" transform="translate(-34.59 -57.01)" style="fill:#e0e0e0"/><path d="M251.39,153.61c.28-1.92-2-2.75-2-2.75l-.47,1.22c1.38.35,1.51,2.2,1.51,2.2Z" transform="translate(-34.59 -57.01)" style="fill:#fe7401"/><path d="M203.71,184.58c-.34,3,3.64,3.74,3.64,3.74l.72-2c-2.39-.22-2.73-3-2.73-3Z" transform="translate(-34.59 -57.01)" style="fill:#fe7401"/><path d="M292.47,173.67c1.94.11,2.56-2.24,2.56-2.24l-1.25-.36c-.23,1.4-2.07,1.69-2.07,1.69Z" transform="translate(-34.59 -57.01)" style="fill:#fe7401"/><path d="M303.06,181.57a8.61,8.61,0,0,1-3.2,0A8.21,8.21,0,0,1,303.06,181.57Z" transform="translate(-34.59 -57.01)" style="fill:#e0e0e0"/><path d="M304.76,177.22a8.82,8.82,0,0,1,0,3.24A8.41,8.41,0,0,1,304.76,177.22Z" transform="translate(-34.59 -57.01)" style="fill:#e0e0e0"/><path d="M306.56,181.46a8.61,8.61,0,0,1,3.2,0A8.21,8.21,0,0,1,306.56,181.46Z" transform="translate(-34.59 -57.01)" style="fill:#e0e0e0"/><path d="M304.87,185.82a8.46,8.46,0,0,1,0-3.25A8.88,8.88,0,0,1,304.87,185.82Z" transform="translate(-34.59 -57.01)" style="fill:#e0e0e0"/><path d="M307.45,184c-.06.05-.37-.21-.69-.58s-.51-.73-.45-.78.38.2.69.58S307.52,183.89,307.45,184Z" transform="translate(-34.59 -57.01)" style="fill:#e0e0e0"/><path d="M307.3,179c.06.07-.15.38-.48.71s-.64.55-.7.49.15-.38.48-.71A1.86,1.86,0,0,1,307.3,179Z" transform="translate(-34.59 -57.01)" style="fill:#e0e0e0"/><path d="M303.64,180.27c-.06.07-.36-.09-.67-.35s-.51-.52-.46-.58.35.09.66.34S303.69,180.21,303.64,180.27Z" transform="translate(-34.59 -57.01)" style="fill:#e0e0e0"/><path d="M303.49,182.45c.07.05-.12.36-.42.69s-.59.54-.65.48.12-.37.42-.69S303.43,182.39,303.49,182.45Z" transform="translate(-34.59 -57.01)" style="fill:#e0e0e0"/><path d="M215.94,172.65a8.21,8.21,0,0,1-3.2,0,8.61,8.61,0,0,1,3.2,0Z" transform="translate(-34.59 -57.01)" style="fill:#fe7401"/><path d="M217.64,168.3a8.46,8.46,0,0,1,0,3.25A8.46,8.46,0,0,1,217.64,168.3Z" transform="translate(-34.59 -57.01)" style="fill:#fe7401"/><path d="M219.45,172.55a8.21,8.21,0,0,1,3.2,0A8.21,8.21,0,0,1,219.45,172.55Z" transform="translate(-34.59 -57.01)" style="fill:#fe7401"/><path d="M217.75,176.9a8.41,8.41,0,0,1,0-3.24A8.41,8.41,0,0,1,217.75,176.9Z" transform="translate(-34.59 -57.01)" style="fill:#fe7401"/><path d="M220.34,175c-.07.06-.38-.2-.69-.58s-.52-.72-.45-.78.37.21.69.58S220.4,175,220.34,175Z" transform="translate(-34.59 -57.01)" style="fill:#fe7401"/><path d="M220.19,170.1c.06.06-.16.38-.48.71s-.64.54-.7.48.15-.37.48-.7S220.13,170,220.19,170.1Z" transform="translate(-34.59 -57.01)" style="fill:#fe7401"/><path d="M216.52,171.36c-.05.06-.35-.09-.66-.35s-.52-.52-.46-.59.35.09.66.35S216.58,171.29,216.52,171.36Z" transform="translate(-34.59 -57.01)" style="fill:#fe7401"/><path d="M216.38,173.53c.06.06-.13.37-.42.7s-.59.54-.66.48.13-.37.42-.69S216.31,173.47,216.38,173.53Z" transform="translate(-34.59 -57.01)" style="fill:#fe7401"/><path d="M326.62,131.05a49.11,49.11,0,0,1-7.07.26,48.92,48.92,0,0,1-7.06-.26,47.53,47.53,0,0,1,7.06-.26A47.72,47.72,0,0,1,326.62,131.05Z" transform="translate(-34.59 -57.01)" style="fill:#263238"/><path d="M326.62,134a47.72,47.72,0,0,1-7.07.26,47.53,47.53,0,0,1-7.06-.26,48.92,48.92,0,0,1,7.06-.26A49.11,49.11,0,0,1,326.62,134Z" transform="translate(-34.59 -57.01)" style="fill:#263238"/><path d="M326.62,136.93a47.72,47.72,0,0,1-7.07.26,47.53,47.53,0,0,1-7.06-.26,48.92,48.92,0,0,1,7.06-.26A49.11,49.11,0,0,1,326.62,136.93Z" transform="translate(-34.59 -57.01)" style="fill:#263238"/><rect x="239.82" y="341.56" width="41.57" height="32.93" transform="matrix(0.01, -1, 1, 0.01, -134.05, 558.81)" style="fill:#ebebeb"/><polygon points="229.75 281.6 229.16 321.84 223.96 321.8 225.08 281.56 229.75 281.6" style="fill:#fafafa"/><polygon points="190.79 281.29 209.68 281.44 242.61 281.7 209.65 286.03 209.37 321.69 190.48 321.54 190.79 281.29" style="fill:#e0e0e0"/><polygon points="201.08 281.37 200.33 321.62 194.72 321.57 195.64 281.33 201.08 281.37" style="fill:#fafafa"/><path d="M250.62,326.13c0,.26-.55.52-1.56.77a26,26,0,0,1-7.47.54,12.29,12.29,0,0,1-1.75-.19,14,14,0,0,1-1.92-.41,6.56,6.56,0,0,1-1.19-.51,3.81,3.81,0,0,1-1.25-1.18,3.51,3.51,0,0,1-.54-1.81,6,6,0,0,1,.16-1.4,24.42,24.42,0,0,1,1.26-4.17,11.39,11.39,0,0,1,1.21-2.12,9.82,9.82,0,0,1,.81-1,5.88,5.88,0,0,1,1.1-.89,4.49,4.49,0,0,1,1.49-.6,4,4,0,0,1,1.71,0,5.53,5.53,0,0,1,2.25,1.24,18.51,18.51,0,0,1,4.33,5.31,12.81,12.81,0,0,1,1.45,4.33c.13,1.08,0,1.69-.24,1.74-.53.13-1.3-2-3.4-4.66a21.12,21.12,0,0,0-4.23-4,2.46,2.46,0,0,0-1-.49.28.28,0,0,0-.18,0,1.51,1.51,0,0,0-.28.15,2.93,2.93,0,0,0-.42.37c-.15.17-.32.38-.47.59a7.74,7.74,0,0,0-.79,1.44,29,29,0,0,0-1.13,3.53,2.28,2.28,0,0,0-.1.52h-.1c-.12,0-.15.06-.07,0l.12-.09h0a.2.2,0,0,0,.09.09,2.32,2.32,0,0,0,.47.24,12.43,12.43,0,0,0,1.47.44c.51.14,1,.25,1.51.35,1,.2,1.93.34,2.8.46,1.75.23,3.21.39,4.22.58S250.61,325.88,250.62,326.13Z" transform="translate(-34.59 -57.01)" style="fill:#e0e0e0"/><path d="M249.94,326.43c-.09-.52,2.37-1.29,6.21-2.42a53.17,53.17,0,0,0,6.48-2.32,6.48,6.48,0,0,0,1.41-.78c.15-.13.22-.24.2-.23s0,.15-.05.08a4.12,4.12,0,0,0-.23-.58l-.48-1a14.89,14.89,0,0,0-1-1.79,7.44,7.44,0,0,0-1.17-1.4,6.66,6.66,0,0,0-.66-.53,2.89,2.89,0,0,0-.6-.32,1.5,1.5,0,0,0-1-.09,3.21,3.21,0,0,0-1.16.67,25.18,25.18,0,0,0-4.5,4.89c-2.21,3.14-2.79,5.59-3.34,5.51-.24,0-.42-.7-.33-1.91a13.56,13.56,0,0,1,1.42-4.9,21.48,21.48,0,0,1,4.51-6.14A6.58,6.58,0,0,1,258,311.7a5.06,5.06,0,0,1,3.26,0,6.48,6.48,0,0,1,1.37.68,9,9,0,0,1,1.11.84,10.31,10.31,0,0,1,1.8,2.1,17.28,17.28,0,0,1,1.23,2.23l.48,1.06a5.8,5.8,0,0,1,.49,1.51,3.44,3.44,0,0,1-.37,2.18,4.05,4.05,0,0,1-1.22,1.35,9.46,9.46,0,0,1-2.25,1.12,33.68,33.68,0,0,1-7.21,1.73C252.56,327.06,250,326.91,249.94,326.43Z" transform="translate(-34.59 -57.01)" style="fill:#ebebeb"/><rect x="236.78" y="307.35" width="13.76" height="48.4" transform="translate(-124.38 515.59) rotate(-89.55)" style="fill:#e0e0e0"/><rect x="252.25" y="309.79" width="13.76" height="43.75" transform="translate(-109.15 531.17) rotate(-89.55)" style="fill:#ebebeb"/><polygon points="233.03 267.86 232.72 281.68 227.62 281.58 227.98 267.82 233.03 267.86" style="fill:#fafafa"/><polygon points="196.78 267.65 196.28 281.35 190.67 281.3 190.97 267.53 196.78 267.65" style="fill:#fafafa"/><rect x="277.3" y="356.9" width="23.55" height="18.66" transform="translate(-114 595.41) rotate(-89.55)" style="fill:#ebebeb"/><polygon points="256.59 298.21 256.26 321.02 253.31 321 253.94 298.19 256.59 298.21" style="fill:#fafafa"/><polygon points="234.51 298.04 245.22 298.12 263.88 298.27 245.2 300.73 245.04 320.93 234.34 320.85 234.51 298.04" style="fill:#e0e0e0"/><polygon points="240.34 298.09 239.92 320.89 236.74 320.87 237.26 298.06 240.34 298.09" style="fill:#fafafa"/><path d="M283.4,348.15c0,.35-1.22.77-3.36,1a12.26,12.26,0,0,1-3.91-.32,2.61,2.61,0,0,1-1.51-1,2.25,2.25,0,0,1-.35-1.15,4.12,4.12,0,0,1,.09-.86,14.55,14.55,0,0,1,.73-2.41,6.71,6.71,0,0,1,.71-1.25A4.42,4.42,0,0,1,277,341a2.6,2.6,0,0,1,2-.34,3.55,3.55,0,0,1,1.37.76,10.41,10.41,0,0,1,2.46,3.1c1,2,.86,3.49.53,3.54s-.87-1.09-2.08-2.54a12.53,12.53,0,0,0-2.39-2.21,1.13,1.13,0,0,0-.45-.23h0l-.07.05a2.18,2.18,0,0,0-.43.48,3.84,3.84,0,0,0-.42.77,14.06,14.06,0,0,0-.63,2l-.06.23h-.31a.69.69,0,0,0,.18-.16l.06-.06h0a.94.94,0,0,0,.22.12,17.61,17.61,0,0,0,3.21.75C282.09,347.55,283.4,347.78,283.4,348.15Z" transform="translate(-34.59 -57.01)" style="fill:#e0e0e0"/><path d="M283,348.33c-.07-.4,1.32-.93,3.46-1.64a35.53,35.53,0,0,0,3.6-1.37,3.36,3.36,0,0,0,.71-.41c.06-.05.06-.09,0,0a.55.55,0,0,0-.07.28l-.37-.78a9.72,9.72,0,0,0-.55-1,3.48,3.48,0,0,0-.6-.72,2,2,0,0,0-.59-.42.55.55,0,0,0-.31,0,1.25,1.25,0,0,0-.54.3,15.18,15.18,0,0,0-2.55,2.64c-1.29,1.69-1.71,3.05-2.12,3s-.66-1.66.38-4A11.93,11.93,0,0,1,286,340.6a4,4,0,0,1,1.44-.92,3.09,3.09,0,0,1,2.08,0,4,4,0,0,1,.86.41,5.82,5.82,0,0,1,.68.52,6.43,6.43,0,0,1,1.08,1.25,11.12,11.12,0,0,1,.72,1.31l.27.61a3.87,3.87,0,0,1,.31,1,2.28,2.28,0,0,1-.26,1.47,2.78,2.78,0,0,1-.79.88,5.38,5.38,0,0,1-1.36.67,18.08,18.08,0,0,1-4.17.92C284.53,348.88,283.08,348.7,283,348.33Z" transform="translate(-34.59 -57.01)" style="fill:#e0e0e0"/><rect x="275.56" y="337.51" width="7.8" height="27.43" transform="matrix(0.01, -1, 1, 0.01, -108.54, 570.91)" style="fill:#e0e0e0"/><rect x="284.34" y="338.89" width="7.8" height="24.79" transform="translate(-99.89 579.75) rotate(-89.55)" style="fill:#ebebeb"/><polygon points="258.45 290.43 258.28 298.26 255.38 298.2 255.59 290.41 258.45 290.43" style="fill:#fafafa"/><polygon points="237.91 290.31 237.63 298.07 234.45 298.05 234.62 290.24 237.91 290.31" style="fill:#fafafa"/></g><g id="freepik--Plant--inject-198"><path d="M422.45,397.81a12.43,12.43,0,0,1,6.43,7.28,21.73,21.73,0,0,1,.85,9.87c-.72,6.4-4.36,12.86-8.27,18-5.39-4.7-6.63-12.91-7-17.11-.58-6.64,2.4-19,8-18" transform="translate(-34.59 -57.01)" style="fill:#fe7401"/><path d="M427.72,443.5a10.59,10.59,0,0,1,3.42-10.06,14,14,0,0,1,10.36-3.24c1.72.13,3.57.63,4.55,2a4.52,4.52,0,0,1,.07,4.59,9.06,9.06,0,0,1-3.39,3.34c-4.67,2.93-9.73,4.91-15,3.33" transform="translate(-34.59 -57.01)" style="fill:#fe7401"/><path d="M420.81,463.12a8.27,8.27,0,0,1,.19-1.31c.17-.93.39-2.12.65-3.56a36.91,36.91,0,0,1,3.67-11.35,22.68,22.68,0,0,1,8.15-8.66,15.62,15.62,0,0,1,3.32-1.47,8.47,8.47,0,0,1,1-.25c.26-.06.34-.06.34,0a21.05,21.05,0,0,0-12.36,10.64,40,40,0,0,0-3.75,11.2c-.33,1.49-.6,2.7-.8,3.52A7.83,7.83,0,0,1,420.81,463.12Z" transform="translate(-34.59 -57.01)" style="fill:#263238"/><path d="M421,407.42a2.25,2.25,0,0,1,.07.58c0,.42.06,1,.1,1.65.07,1.43.16,3.5.24,6.07.16,5.13.29,12.22.26,20s-.22,14.92-.44,20c-.1,2.57-.2,4.64-.29,6.07-.05.68-.08,1.22-.11,1.65h0c.07-.57-.1.37-.1,0v-1.66c0-1.49.08-3.55.14-6.07.13-5.13.27-12.21.31-20s-.05-14.91-.13-20c0-2.52-.07-4.59-.1-6.08V408A4.18,4.18,0,0,1,421,407.42Z" transform="translate(-34.59 -57.01)" style="fill:#263238"/><path d="M418.4,447.39a24.78,24.78,0,0,0-13.52-18.13c-1.8-.86-4.15-1.43-5.63-.09s-1.16,3.75-.43,5.62a21.16,21.16,0,0,0,19.45,13.13" transform="translate(-34.59 -57.01)" style="fill:#fe7401"/><path d="M405.75,435.33a6.16,6.16,0,0,1,1.15.5,10.65,10.65,0,0,1,1.29.69,18.41,18.41,0,0,1,1.64,1,20.26,20.26,0,0,1,1.89,1.42,24.67,24.67,0,0,1,2,1.82,27.34,27.34,0,0,1,3.81,4.89,26.8,26.8,0,0,1,2.5,5.67,21.45,21.45,0,0,1,.64,2.63,20.38,20.38,0,0,1,.32,2.33c.1.72.06,1.37.09,1.94a12,12,0,0,1,0,1.47,6.45,6.45,0,0,1-.14,1.24c-.11,0,.07-1.78-.24-4.61a22.47,22.47,0,0,0-.37-2.3c-.15-.82-.41-1.68-.67-2.58a27.42,27.42,0,0,0-2.5-5.55,28.05,28.05,0,0,0-3.71-4.83,25.88,25.88,0,0,0-1.94-1.83c-.62-.56-1.26-1-1.83-1.44C407.33,436.16,405.7,435.42,405.75,435.33Z" transform="translate(-34.59 -57.01)" style="fill:#263238"/></g></svg>